<mxfile host="app.diagrams.net" agent="Mozilla/5.0 (Windows NT 10.0; Win64; x64) AppleWebKit/537.36 (KHTML, like Gecko) Chrome/134.0.0.0 Safari/537.36" version="26.1.0">
  <diagram name="Страница — 1" id="Ce_wdNVeoN-a0_cJSXrE">
    <mxGraphModel dx="2357" dy="2593" grid="1" gridSize="10" guides="1" tooltips="1" connect="1" arrows="1" fold="1" page="1" pageScale="1" pageWidth="827" pageHeight="1169" math="0" shadow="0">
      <root>
        <mxCell id="0" />
        <mxCell id="1" parent="0" />
        <mxCell id="whBnh5u1kCoV2yIRg_Z0-98" value="Начало" style="ellipse;whiteSpace=wrap;html=1;" vertex="1" parent="1">
          <mxGeometry x="270" y="10" width="120" height="80" as="geometry" />
        </mxCell>
        <mxCell id="whBnh5u1kCoV2yIRg_Z0-99" value="" style="endArrow=classic;html=1;rounded=0;" edge="1" parent="1" target="whBnh5u1kCoV2yIRg_Z0-100">
          <mxGeometry width="50" height="50" relative="1" as="geometry">
            <mxPoint x="330" y="90" as="sourcePoint" />
            <mxPoint x="330" y="110" as="targetPoint" />
          </mxGeometry>
        </mxCell>
        <mxCell id="whBnh5u1kCoV2yIRg_Z0-100" value="setlocale(LC_ALL, &quot;Ru&quot;);" style="rounded=0;whiteSpace=wrap;html=1;" vertex="1" parent="1">
          <mxGeometry x="270" y="110" width="120" height="60" as="geometry" />
        </mxCell>
        <mxCell id="whBnh5u1kCoV2yIRg_Z0-101" value="" style="endArrow=classic;html=1;rounded=0;" edge="1" parent="1" target="whBnh5u1kCoV2yIRg_Z0-102">
          <mxGeometry width="50" height="50" relative="1" as="geometry">
            <mxPoint x="330" y="170" as="sourcePoint" />
            <mxPoint x="330" y="190" as="targetPoint" />
          </mxGeometry>
        </mxCell>
        <UserObject label="const string file_f1 = &quot;F1.txt&quot;;" link="const string file_f1 = &quot;F1.txt&quot;;" id="whBnh5u1kCoV2yIRg_Z0-102">
          <mxCell style="rounded=0;whiteSpace=wrap;html=1;" vertex="1" parent="1">
            <mxGeometry x="270" y="190" width="120" height="60" as="geometry" />
          </mxCell>
        </UserObject>
        <mxCell id="whBnh5u1kCoV2yIRg_Z0-103" value="" style="endArrow=classic;html=1;rounded=0;" edge="1" parent="1" target="whBnh5u1kCoV2yIRg_Z0-104">
          <mxGeometry width="50" height="50" relative="1" as="geometry">
            <mxPoint x="330" y="250" as="sourcePoint" />
            <mxPoint x="330" y="270" as="targetPoint" />
          </mxGeometry>
        </mxCell>
        <UserObject label="const string file_f2 = &quot;F2.txt&quot;;" link="const string file_f2 = &quot;F2.txt&quot;;" id="whBnh5u1kCoV2yIRg_Z0-104">
          <mxCell style="rounded=0;whiteSpace=wrap;html=1;" vertex="1" parent="1">
            <mxGeometry x="270" y="270" width="120" height="60" as="geometry" />
          </mxCell>
        </UserObject>
        <mxCell id="whBnh5u1kCoV2yIRg_Z0-105" value="" style="endArrow=classic;html=1;rounded=0;" edge="1" parent="1" target="whBnh5u1kCoV2yIRg_Z0-106">
          <mxGeometry width="50" height="50" relative="1" as="geometry">
            <mxPoint x="330" y="330" as="sourcePoint" />
            <mxPoint x="330" y="350" as="targetPoint" />
          </mxGeometry>
        </mxCell>
        <mxCell id="whBnh5u1kCoV2yIRg_Z0-106" value="cin &gt;&gt; start_line;" style="shape=parallelogram;perimeter=parallelogramPerimeter;whiteSpace=wrap;html=1;fixedSize=1;" vertex="1" parent="1">
          <mxGeometry x="270" y="350" width="120" height="60" as="geometry" />
        </mxCell>
        <mxCell id="whBnh5u1kCoV2yIRg_Z0-107" value="" style="endArrow=classic;html=1;rounded=0;" edge="1" parent="1" target="whBnh5u1kCoV2yIRg_Z0-108">
          <mxGeometry width="50" height="50" relative="1" as="geometry">
            <mxPoint x="330" y="410" as="sourcePoint" />
            <mxPoint x="330" y="430" as="targetPoint" />
          </mxGeometry>
        </mxCell>
        <mxCell id="whBnh5u1kCoV2yIRg_Z0-108" value="if (start_line &lt; 1)" style="rhombus;whiteSpace=wrap;html=1;" vertex="1" parent="1">
          <mxGeometry x="280" y="430" width="100" height="80" as="geometry" />
        </mxCell>
        <mxCell id="whBnh5u1kCoV2yIRg_Z0-109" value="" style="endArrow=classic;html=1;rounded=0;" edge="1" parent="1">
          <mxGeometry width="50" height="50" relative="1" as="geometry">
            <mxPoint x="280" y="470" as="sourcePoint" />
            <mxPoint x="240" y="510" as="targetPoint" />
            <Array as="points">
              <mxPoint x="240" y="470" />
            </Array>
          </mxGeometry>
        </mxCell>
        <mxCell id="whBnh5u1kCoV2yIRg_Z0-110" value="return 1;" style="ellipse;whiteSpace=wrap;html=1;" vertex="1" parent="1">
          <mxGeometry x="180" y="600" width="120" height="80" as="geometry" />
        </mxCell>
        <mxCell id="whBnh5u1kCoV2yIRg_Z0-111" value="" style="endArrow=classic;html=1;rounded=0;" edge="1" parent="1">
          <mxGeometry width="50" height="50" relative="1" as="geometry">
            <mxPoint x="380" y="470" as="sourcePoint" />
            <mxPoint x="410" y="510" as="targetPoint" />
            <Array as="points">
              <mxPoint x="410" y="470" />
            </Array>
          </mxGeometry>
        </mxCell>
        <UserObject label="cin.ignore(numeric_limits&lt;streamsize&gt;::max(), &#39;\n&#39;);" link="cin.ignore(numeric_limits&lt;streamsize&gt;::max(), &#39;\n&#39;);" id="whBnh5u1kCoV2yIRg_Z0-112">
          <mxCell style="shape=parallelogram;perimeter=parallelogramPerimeter;whiteSpace=wrap;html=1;fixedSize=1;" vertex="1" parent="1">
            <mxGeometry x="310" y="510" width="230" height="60" as="geometry" />
          </mxCell>
        </UserObject>
        <mxCell id="whBnh5u1kCoV2yIRg_Z0-114" value="cerr &lt;&lt; &quot;Ошибка: Номер строки должен быть больше или равен 1.&quot; &lt;&lt; endl;" style="shape=parallelogram;perimeter=parallelogramPerimeter;whiteSpace=wrap;html=1;fixedSize=1;" vertex="1" parent="1">
          <mxGeometry x="100" y="510" width="210" height="60" as="geometry" />
        </mxCell>
        <mxCell id="whBnh5u1kCoV2yIRg_Z0-115" value="" style="endArrow=classic;html=1;rounded=0;entryX=0.5;entryY=0;entryDx=0;entryDy=0;" edge="1" parent="1" target="whBnh5u1kCoV2yIRg_Z0-110">
          <mxGeometry width="50" height="50" relative="1" as="geometry">
            <mxPoint x="240" y="570" as="sourcePoint" />
            <mxPoint x="290" y="520" as="targetPoint" />
          </mxGeometry>
        </mxCell>
        <mxCell id="whBnh5u1kCoV2yIRg_Z0-116" value="" style="endArrow=classic;html=1;rounded=0;" edge="1" parent="1">
          <mxGeometry width="50" height="50" relative="1" as="geometry">
            <mxPoint x="414" y="570" as="sourcePoint" />
            <mxPoint x="414" y="600" as="targetPoint" />
          </mxGeometry>
        </mxCell>
        <mxCell id="whBnh5u1kCoV2yIRg_Z0-118" value="ofstream f1(file_f1);" style="rounded=0;whiteSpace=wrap;html=1;" vertex="1" parent="1">
          <mxGeometry x="354" y="600" width="120" height="60" as="geometry" />
        </mxCell>
        <mxCell id="whBnh5u1kCoV2yIRg_Z0-119" value="" style="endArrow=classic;html=1;rounded=0;" edge="1" parent="1">
          <mxGeometry width="50" height="50" relative="1" as="geometry">
            <mxPoint x="414" y="660" as="sourcePoint" />
            <mxPoint x="414" y="690" as="targetPoint" />
          </mxGeometry>
        </mxCell>
        <mxCell id="whBnh5u1kCoV2yIRg_Z0-120" value="if (!f1.is_open())" style="rhombus;whiteSpace=wrap;html=1;" vertex="1" parent="1">
          <mxGeometry x="356" y="690" width="116" height="80" as="geometry" />
        </mxCell>
        <mxCell id="whBnh5u1kCoV2yIRg_Z0-121" value="1" style="text;html=1;align=center;verticalAlign=middle;whiteSpace=wrap;rounded=0;" vertex="1" parent="1">
          <mxGeometry x="230" y="440" width="60" height="30" as="geometry" />
        </mxCell>
        <mxCell id="whBnh5u1kCoV2yIRg_Z0-122" value="0" style="text;html=1;align=center;verticalAlign=middle;whiteSpace=wrap;rounded=0;" vertex="1" parent="1">
          <mxGeometry x="360" y="440" width="60" height="30" as="geometry" />
        </mxCell>
        <mxCell id="whBnh5u1kCoV2yIRg_Z0-123" value="" style="endArrow=classic;html=1;rounded=0;" edge="1" parent="1">
          <mxGeometry width="50" height="50" relative="1" as="geometry">
            <mxPoint x="356" y="730" as="sourcePoint" />
            <mxPoint x="320" y="760" as="targetPoint" />
            <Array as="points">
              <mxPoint x="320" y="730" />
            </Array>
          </mxGeometry>
        </mxCell>
        <mxCell id="whBnh5u1kCoV2yIRg_Z0-125" value="cerr &lt;&lt; &quot;Ошибка: не удалось создать/открыть файл &quot; &lt;&lt; file_f1 &lt;&lt; endl;" style="shape=parallelogram;perimeter=parallelogramPerimeter;whiteSpace=wrap;html=1;fixedSize=1;" vertex="1" parent="1">
          <mxGeometry x="230" y="760" width="160" height="60" as="geometry" />
        </mxCell>
        <mxCell id="whBnh5u1kCoV2yIRg_Z0-126" value="" style="endArrow=classic;html=1;rounded=0;" edge="1" parent="1" target="whBnh5u1kCoV2yIRg_Z0-127">
          <mxGeometry width="50" height="50" relative="1" as="geometry">
            <mxPoint x="320" y="820" as="sourcePoint" />
            <mxPoint x="320" y="840" as="targetPoint" />
          </mxGeometry>
        </mxCell>
        <mxCell id="whBnh5u1kCoV2yIRg_Z0-127" value="return 1;" style="ellipse;whiteSpace=wrap;html=1;" vertex="1" parent="1">
          <mxGeometry x="260" y="840" width="120" height="80" as="geometry" />
        </mxCell>
        <mxCell id="whBnh5u1kCoV2yIRg_Z0-128" value="1" style="text;html=1;align=center;verticalAlign=middle;whiteSpace=wrap;rounded=0;" vertex="1" parent="1">
          <mxGeometry x="310" y="700" width="60" height="30" as="geometry" />
        </mxCell>
        <mxCell id="whBnh5u1kCoV2yIRg_Z0-129" value="" style="endArrow=classic;html=1;rounded=0;" edge="1" parent="1">
          <mxGeometry width="50" height="50" relative="1" as="geometry">
            <mxPoint x="472" y="730" as="sourcePoint" />
            <mxPoint x="520" y="760" as="targetPoint" />
            <Array as="points">
              <mxPoint x="520" y="730" />
            </Array>
          </mxGeometry>
        </mxCell>
        <mxCell id="whBnh5u1kCoV2yIRg_Z0-130" value="0" style="text;html=1;align=center;verticalAlign=middle;whiteSpace=wrap;rounded=0;" vertex="1" parent="1">
          <mxGeometry x="460" y="700" width="60" height="30" as="geometry" />
        </mxCell>
        <mxCell id="whBnh5u1kCoV2yIRg_Z0-131" value="cout &lt;&lt; &quot;Введите строки для файла &quot; &lt;&lt; file_f1 &lt;&lt; &quot;." style="shape=parallelogram;perimeter=parallelogramPerimeter;whiteSpace=wrap;html=1;fixedSize=1;" vertex="1" parent="1">
          <mxGeometry x="430" y="760" width="180" height="60" as="geometry" />
        </mxCell>
        <mxCell id="whBnh5u1kCoV2yIRg_Z0-132" value="" style="endArrow=classic;html=1;rounded=0;" edge="1" parent="1">
          <mxGeometry width="50" height="50" relative="1" as="geometry">
            <mxPoint x="520" y="820" as="sourcePoint" />
            <mxPoint x="520" y="840" as="targetPoint" />
          </mxGeometry>
        </mxCell>
        <mxCell id="whBnh5u1kCoV2yIRg_Z0-134" value="while (getline(cin, line))" style="rhombus;whiteSpace=wrap;html=1;" vertex="1" parent="1">
          <mxGeometry x="480" y="840" width="80" height="80" as="geometry" />
        </mxCell>
        <mxCell id="whBnh5u1kCoV2yIRg_Z0-135" value="" style="endArrow=classic;html=1;rounded=0;" edge="1" parent="1">
          <mxGeometry width="50" height="50" relative="1" as="geometry">
            <mxPoint x="520" y="920" as="sourcePoint" />
            <mxPoint x="520" y="940" as="targetPoint" />
          </mxGeometry>
        </mxCell>
        <mxCell id="whBnh5u1kCoV2yIRg_Z0-136" value="if (line == &quot;END&quot;)" style="rhombus;whiteSpace=wrap;html=1;" vertex="1" parent="1">
          <mxGeometry x="480" y="940" width="80" height="80" as="geometry" />
        </mxCell>
        <mxCell id="whBnh5u1kCoV2yIRg_Z0-139" value="lines_f1.push_back(line);" style="rounded=0;whiteSpace=wrap;html=1;" vertex="1" parent="1">
          <mxGeometry x="540" y="1030" width="140" height="60" as="geometry" />
        </mxCell>
        <mxCell id="whBnh5u1kCoV2yIRg_Z0-140" value="" style="endArrow=classic;html=1;rounded=0;exitX=0.5;exitY=1;exitDx=0;exitDy=0;" edge="1" parent="1" source="whBnh5u1kCoV2yIRg_Z0-139">
          <mxGeometry width="50" height="50" relative="1" as="geometry">
            <mxPoint x="580" y="1091" as="sourcePoint" />
            <mxPoint x="520" y="840" as="targetPoint" />
            <Array as="points">
              <mxPoint x="610" y="1160" />
              <mxPoint x="452" y="1160" />
              <mxPoint x="370" y="1160" />
              <mxPoint x="370" y="950" />
              <mxPoint x="430" y="950" />
              <mxPoint x="430" y="880" />
              <mxPoint x="430" y="840" />
            </Array>
          </mxGeometry>
        </mxCell>
        <mxCell id="whBnh5u1kCoV2yIRg_Z0-142" value="1" style="text;html=1;align=center;verticalAlign=middle;whiteSpace=wrap;rounded=0;" vertex="1" parent="1">
          <mxGeometry x="430" y="940" width="60" height="30" as="geometry" />
        </mxCell>
        <mxCell id="whBnh5u1kCoV2yIRg_Z0-143" value="0" style="text;html=1;align=center;verticalAlign=middle;whiteSpace=wrap;rounded=0;" vertex="1" parent="1">
          <mxGeometry x="550" y="950" width="60" height="30" as="geometry" />
        </mxCell>
        <mxCell id="whBnh5u1kCoV2yIRg_Z0-144" value="" style="endArrow=classic;html=1;rounded=0;entryX=0.5;entryY=0;entryDx=0;entryDy=0;exitX=1;exitY=0.5;exitDx=0;exitDy=0;" edge="1" parent="1" source="whBnh5u1kCoV2yIRg_Z0-136" target="whBnh5u1kCoV2yIRg_Z0-139">
          <mxGeometry width="50" height="50" relative="1" as="geometry">
            <mxPoint x="550" y="990" as="sourcePoint" />
            <mxPoint x="600" y="940" as="targetPoint" />
            <Array as="points">
              <mxPoint x="610" y="980" />
            </Array>
          </mxGeometry>
        </mxCell>
        <mxCell id="whBnh5u1kCoV2yIRg_Z0-145" value="" style="endArrow=classic;html=1;rounded=0;" edge="1" parent="1">
          <mxGeometry width="50" height="50" relative="1" as="geometry">
            <mxPoint x="480" y="980" as="sourcePoint" />
            <mxPoint x="560" y="1200" as="targetPoint" />
            <Array as="points">
              <mxPoint x="440" y="980" />
              <mxPoint x="440" y="1200" />
            </Array>
          </mxGeometry>
        </mxCell>
        <mxCell id="whBnh5u1kCoV2yIRg_Z0-146" value="" style="endArrow=classic;html=1;rounded=0;" edge="1" parent="1">
          <mxGeometry width="50" height="50" relative="1" as="geometry">
            <mxPoint x="560" y="880" as="sourcePoint" />
            <mxPoint x="560" y="1200" as="targetPoint" />
            <Array as="points">
              <mxPoint x="690" y="880" />
              <mxPoint x="690" y="1200" />
            </Array>
          </mxGeometry>
        </mxCell>
        <mxCell id="whBnh5u1kCoV2yIRg_Z0-147" value="" style="endArrow=classic;html=1;rounded=0;" edge="1" parent="1">
          <mxGeometry width="50" height="50" relative="1" as="geometry">
            <mxPoint x="560" y="1200" as="sourcePoint" />
            <mxPoint x="560" y="1230" as="targetPoint" />
          </mxGeometry>
        </mxCell>
        <UserObject label="f1.close();" link="f1.close();" id="whBnh5u1kCoV2yIRg_Z0-148">
          <mxCell style="rounded=0;whiteSpace=wrap;html=1;" vertex="1" parent="1">
            <mxGeometry x="500" y="1230" width="120" height="60" as="geometry" />
          </mxCell>
        </UserObject>
        <mxCell id="whBnh5u1kCoV2yIRg_Z0-149" value="" style="endArrow=classic;html=1;rounded=0;" edge="1" parent="1" target="whBnh5u1kCoV2yIRg_Z0-150">
          <mxGeometry width="50" height="50" relative="1" as="geometry">
            <mxPoint x="560" y="1290" as="sourcePoint" />
            <mxPoint x="560" y="1310" as="targetPoint" />
          </mxGeometry>
        </mxCell>
        <UserObject label="if (lines_f1.size() &lt; 1)" link="if (lines_f1.size() &lt; 1)" id="whBnh5u1kCoV2yIRg_Z0-150">
          <mxCell style="rhombus;whiteSpace=wrap;html=1;" vertex="1" parent="1">
            <mxGeometry x="520" y="1310" width="80" height="80" as="geometry" />
          </mxCell>
        </UserObject>
        <mxCell id="whBnh5u1kCoV2yIRg_Z0-151" value="" style="endArrow=classic;html=1;rounded=0;" edge="1" parent="1">
          <mxGeometry width="50" height="50" relative="1" as="geometry">
            <mxPoint x="520" y="1350" as="sourcePoint" />
            <mxPoint x="480" y="1400" as="targetPoint" />
            <Array as="points">
              <mxPoint x="480" y="1350" />
            </Array>
          </mxGeometry>
        </mxCell>
        <mxCell id="whBnh5u1kCoV2yIRg_Z0-152" value="1" style="text;html=1;align=center;verticalAlign=middle;whiteSpace=wrap;rounded=0;" vertex="1" parent="1">
          <mxGeometry x="472" y="1320" width="60" height="30" as="geometry" />
        </mxCell>
        <mxCell id="whBnh5u1kCoV2yIRg_Z0-154" value="cerr &lt;&lt; &quot;Ошибка: В файле &quot; &lt;&lt; file_f1 &lt;&lt; &quot;" style="shape=parallelogram;perimeter=parallelogramPerimeter;whiteSpace=wrap;html=1;fixedSize=1;" vertex="1" parent="1">
          <mxGeometry x="410" y="1400" width="140" height="60" as="geometry" />
        </mxCell>
        <mxCell id="whBnh5u1kCoV2yIRg_Z0-155" value="" style="endArrow=classic;html=1;rounded=0;" edge="1" parent="1">
          <mxGeometry width="50" height="50" relative="1" as="geometry">
            <mxPoint x="480" y="1460" as="sourcePoint" />
            <mxPoint x="480" y="1480" as="targetPoint" />
          </mxGeometry>
        </mxCell>
        <mxCell id="whBnh5u1kCoV2yIRg_Z0-156" value="return 1;" style="ellipse;whiteSpace=wrap;html=1;" vertex="1" parent="1">
          <mxGeometry x="420" y="1480" width="120" height="80" as="geometry" />
        </mxCell>
        <mxCell id="whBnh5u1kCoV2yIRg_Z0-157" value="" style="endArrow=classic;html=1;rounded=0;" edge="1" parent="1">
          <mxGeometry width="50" height="50" relative="1" as="geometry">
            <mxPoint x="600" y="1350" as="sourcePoint" />
            <mxPoint x="640" y="1400" as="targetPoint" />
            <Array as="points">
              <mxPoint x="640" y="1350" />
            </Array>
          </mxGeometry>
        </mxCell>
        <mxCell id="whBnh5u1kCoV2yIRg_Z0-158" value="ifstream f1_read(file_f1);" style="rounded=0;whiteSpace=wrap;html=1;" vertex="1" parent="1">
          <mxGeometry x="580" y="1400" width="120" height="60" as="geometry" />
        </mxCell>
        <mxCell id="whBnh5u1kCoV2yIRg_Z0-160" value="" style="endArrow=classic;html=1;rounded=0;" edge="1" parent="1" target="whBnh5u1kCoV2yIRg_Z0-161">
          <mxGeometry width="50" height="50" relative="1" as="geometry">
            <mxPoint x="640" y="1460" as="sourcePoint" />
            <mxPoint x="640" y="1480" as="targetPoint" />
          </mxGeometry>
        </mxCell>
        <mxCell id="whBnh5u1kCoV2yIRg_Z0-161" value="ofstream f2(file_f2);" style="rounded=0;whiteSpace=wrap;html=1;" vertex="1" parent="1">
          <mxGeometry x="580" y="1490" width="120" height="60" as="geometry" />
        </mxCell>
        <mxCell id="whBnh5u1kCoV2yIRg_Z0-162" value="" style="endArrow=classic;html=1;rounded=0;" edge="1" parent="1">
          <mxGeometry width="50" height="50" relative="1" as="geometry">
            <mxPoint x="640" y="1550" as="sourcePoint" />
            <mxPoint x="640" y="1580" as="targetPoint" />
          </mxGeometry>
        </mxCell>
        <mxCell id="whBnh5u1kCoV2yIRg_Z0-164" value="if (!f1_read.is_open())" style="rhombus;whiteSpace=wrap;html=1;" vertex="1" parent="1">
          <mxGeometry x="575" y="1580" width="130" height="80" as="geometry" />
        </mxCell>
        <mxCell id="whBnh5u1kCoV2yIRg_Z0-165" value="0" style="text;html=1;align=center;verticalAlign=middle;whiteSpace=wrap;rounded=0;" vertex="1" parent="1">
          <mxGeometry x="590" y="1320" width="60" height="30" as="geometry" />
        </mxCell>
        <mxCell id="whBnh5u1kCoV2yIRg_Z0-166" value="" style="endArrow=classic;html=1;rounded=0;" edge="1" parent="1">
          <mxGeometry width="50" height="50" relative="1" as="geometry">
            <mxPoint x="575" y="1620" as="sourcePoint" />
            <mxPoint x="540" y="1660" as="targetPoint" />
            <Array as="points">
              <mxPoint x="540" y="1620" />
            </Array>
          </mxGeometry>
        </mxCell>
        <mxCell id="whBnh5u1kCoV2yIRg_Z0-167" value="1" style="text;html=1;align=center;verticalAlign=middle;whiteSpace=wrap;rounded=0;" vertex="1" parent="1">
          <mxGeometry x="530" y="1590" width="60" height="30" as="geometry" />
        </mxCell>
        <mxCell id="whBnh5u1kCoV2yIRg_Z0-169" value="cerr &lt;&lt; &quot;Ошибка: не удалось открыть файл &quot; &lt;&lt; file_f1 &lt;&lt; &quot; для чтения.&quot; &lt;&lt; endl;" style="shape=parallelogram;perimeter=parallelogramPerimeter;whiteSpace=wrap;html=1;fixedSize=1;" vertex="1" parent="1">
          <mxGeometry x="440" y="1660" width="190" height="50" as="geometry" />
        </mxCell>
        <mxCell id="whBnh5u1kCoV2yIRg_Z0-171" value="" style="endArrow=classic;html=1;rounded=0;" edge="1" parent="1">
          <mxGeometry width="50" height="50" relative="1" as="geometry">
            <mxPoint x="540" y="1710" as="sourcePoint" />
            <mxPoint x="540" y="1730" as="targetPoint" />
          </mxGeometry>
        </mxCell>
        <mxCell id="whBnh5u1kCoV2yIRg_Z0-172" value="return 1;" style="ellipse;whiteSpace=wrap;html=1;" vertex="1" parent="1">
          <mxGeometry x="480" y="1730" width="120" height="80" as="geometry" />
        </mxCell>
        <mxCell id="whBnh5u1kCoV2yIRg_Z0-173" value="" style="endArrow=classic;html=1;rounded=0;entryX=0.5;entryY=0;entryDx=0;entryDy=0;entryPerimeter=0;" edge="1" parent="1" target="whBnh5u1kCoV2yIRg_Z0-176">
          <mxGeometry width="50" height="50" relative="1" as="geometry">
            <mxPoint x="705" y="1620" as="sourcePoint" />
            <mxPoint x="740" y="1650" as="targetPoint" />
            <Array as="points">
              <mxPoint x="740" y="1620" />
            </Array>
          </mxGeometry>
        </mxCell>
        <mxCell id="whBnh5u1kCoV2yIRg_Z0-174" value="0" style="text;html=1;align=center;verticalAlign=middle;whiteSpace=wrap;rounded=0;" vertex="1" parent="1">
          <mxGeometry x="690" y="1590" width="60" height="30" as="geometry" />
        </mxCell>
        <mxCell id="whBnh5u1kCoV2yIRg_Z0-176" value="if (!f2.is_open())" style="rhombus;whiteSpace=wrap;html=1;" vertex="1" parent="1">
          <mxGeometry x="690" y="1660" width="100" height="80" as="geometry" />
        </mxCell>
        <mxCell id="whBnh5u1kCoV2yIRg_Z0-177" value="" style="endArrow=classic;html=1;rounded=0;entryX=0.6;entryY=0.022;entryDx=0;entryDy=0;entryPerimeter=0;" edge="1" parent="1" target="whBnh5u1kCoV2yIRg_Z0-180">
          <mxGeometry width="50" height="50" relative="1" as="geometry">
            <mxPoint x="690" y="1700" as="sourcePoint" />
            <mxPoint x="660" y="1730" as="targetPoint" />
            <Array as="points">
              <mxPoint x="660" y="1700" />
            </Array>
          </mxGeometry>
        </mxCell>
        <mxCell id="whBnh5u1kCoV2yIRg_Z0-178" value="1" style="text;html=1;align=center;verticalAlign=middle;whiteSpace=wrap;rounded=0;" vertex="1" parent="1">
          <mxGeometry x="650" y="1670" width="60" height="30" as="geometry" />
        </mxCell>
        <mxCell id="whBnh5u1kCoV2yIRg_Z0-180" value="&lt;font style=&quot;font-size: 9px;&quot;&gt;cerr &amp;lt;&amp;lt; &quot;Ошибка: не удалось создать/открыть файл &quot; &amp;lt;&amp;lt; file_f2 &amp;lt;&amp;lt; &quot; для записи.&quot; &amp;lt;&amp;lt; endl;&lt;/font&gt;" style="shape=parallelogram;perimeter=parallelogramPerimeter;whiteSpace=wrap;html=1;fixedSize=1;" vertex="1" parent="1">
          <mxGeometry x="570" y="1810" width="150" height="90" as="geometry" />
        </mxCell>
        <mxCell id="whBnh5u1kCoV2yIRg_Z0-181" value="" style="endArrow=classic;html=1;rounded=0;" edge="1" parent="1">
          <mxGeometry width="50" height="50" relative="1" as="geometry">
            <mxPoint x="660" y="1900" as="sourcePoint" />
            <mxPoint x="660" y="1920" as="targetPoint" />
          </mxGeometry>
        </mxCell>
        <UserObject label="f1_read.close();" link="f1_read.close();" id="whBnh5u1kCoV2yIRg_Z0-182">
          <mxCell style="rounded=0;whiteSpace=wrap;html=1;" vertex="1" parent="1">
            <mxGeometry x="600" y="1920" width="120" height="60" as="geometry" />
          </mxCell>
        </UserObject>
        <mxCell id="whBnh5u1kCoV2yIRg_Z0-183" value="" style="endArrow=classic;html=1;rounded=0;" edge="1" parent="1">
          <mxGeometry width="50" height="50" relative="1" as="geometry">
            <mxPoint x="660" y="1980" as="sourcePoint" />
            <mxPoint x="660" y="2000" as="targetPoint" />
          </mxGeometry>
        </mxCell>
        <mxCell id="whBnh5u1kCoV2yIRg_Z0-184" value="return 1;" style="ellipse;whiteSpace=wrap;html=1;" vertex="1" parent="1">
          <mxGeometry x="600" y="2000" width="120" height="80" as="geometry" />
        </mxCell>
        <mxCell id="whBnh5u1kCoV2yIRg_Z0-185" value="" style="endArrow=classic;html=1;rounded=0;" edge="1" parent="1">
          <mxGeometry width="50" height="50" relative="1" as="geometry">
            <mxPoint x="790" y="1700" as="sourcePoint" />
            <mxPoint x="850" y="1810" as="targetPoint" />
            <Array as="points">
              <mxPoint x="850" y="1700" />
            </Array>
          </mxGeometry>
        </mxCell>
        <mxCell id="whBnh5u1kCoV2yIRg_Z0-186" value="0" style="text;html=1;align=center;verticalAlign=middle;whiteSpace=wrap;rounded=0;" vertex="1" parent="1">
          <mxGeometry x="790" y="1670" width="60" height="30" as="geometry" />
        </mxCell>
        <mxCell id="whBnh5u1kCoV2yIRg_Z0-188" value="string read_line;" style="shape=parallelogram;perimeter=parallelogramPerimeter;whiteSpace=wrap;html=1;fixedSize=1;" vertex="1" parent="1">
          <mxGeometry x="790" y="1810" width="120" height="60" as="geometry" />
        </mxCell>
        <mxCell id="whBnh5u1kCoV2yIRg_Z0-189" value="" style="endArrow=classic;html=1;rounded=0;" edge="1" parent="1">
          <mxGeometry width="50" height="50" relative="1" as="geometry">
            <mxPoint x="850" y="1870" as="sourcePoint" />
            <mxPoint x="850" y="1890" as="targetPoint" />
          </mxGeometry>
        </mxCell>
        <mxCell id="whBnh5u1kCoV2yIRg_Z0-190" value="int line_number = 1;" style="rounded=0;whiteSpace=wrap;html=1;" vertex="1" parent="1">
          <mxGeometry x="790" y="1890" width="120" height="60" as="geometry" />
        </mxCell>
        <mxCell id="whBnh5u1kCoV2yIRg_Z0-191" value="" style="endArrow=classic;html=1;rounded=0;" edge="1" parent="1">
          <mxGeometry width="50" height="50" relative="1" as="geometry">
            <mxPoint x="850" y="1950" as="sourcePoint" />
            <mxPoint x="850" y="2070" as="targetPoint" />
          </mxGeometry>
        </mxCell>
        <mxCell id="whBnh5u1kCoV2yIRg_Z0-193" value="cout &lt;&lt; &quot;Строки, скопированные из &quot; &lt;&lt; file_f1 &lt;&lt; &quot; в &quot; &lt;&lt; file_f2 &lt;&lt; &quot; и выведенные в консоль:\n&quot;;" style="shape=parallelogram;perimeter=parallelogramPerimeter;whiteSpace=wrap;html=1;fixedSize=1;" vertex="1" parent="1">
          <mxGeometry x="730" y="2070" width="230" height="100" as="geometry" />
        </mxCell>
        <mxCell id="whBnh5u1kCoV2yIRg_Z0-194" value="" style="endArrow=classic;html=1;rounded=0;" edge="1" parent="1">
          <mxGeometry width="50" height="50" relative="1" as="geometry">
            <mxPoint x="850" y="2170" as="sourcePoint" />
            <mxPoint x="850" y="2200" as="targetPoint" />
          </mxGeometry>
        </mxCell>
        <mxCell id="whBnh5u1kCoV2yIRg_Z0-196" value="while (getline(f1_read, read_line))" style="rhombus;whiteSpace=wrap;html=1;" vertex="1" parent="1">
          <mxGeometry x="770" y="2200" width="160" height="80" as="geometry" />
        </mxCell>
        <mxCell id="whBnh5u1kCoV2yIRg_Z0-197" value="" style="endArrow=classic;html=1;rounded=0;" edge="1" parent="1">
          <mxGeometry width="50" height="50" relative="1" as="geometry">
            <mxPoint x="850" y="2280" as="sourcePoint" />
            <mxPoint x="850" y="2300" as="targetPoint" />
          </mxGeometry>
        </mxCell>
        <mxCell id="whBnh5u1kCoV2yIRg_Z0-198" value="if (line_number &gt;= start_line)" style="rhombus;whiteSpace=wrap;html=1;" vertex="1" parent="1">
          <mxGeometry x="780" y="2300" width="140" height="80" as="geometry" />
        </mxCell>
        <mxCell id="whBnh5u1kCoV2yIRg_Z0-200" value="" style="endArrow=classic;html=1;rounded=0;entryX=0.5;entryY=0;entryDx=0;entryDy=0;" edge="1" parent="1" target="whBnh5u1kCoV2yIRg_Z0-202">
          <mxGeometry width="50" height="50" relative="1" as="geometry">
            <mxPoint x="780" y="2340" as="sourcePoint" />
            <mxPoint x="740" y="2360" as="targetPoint" />
            <Array as="points">
              <mxPoint x="740" y="2340" />
            </Array>
          </mxGeometry>
        </mxCell>
        <mxCell id="whBnh5u1kCoV2yIRg_Z0-202" value="f2 &lt;&lt; read_line &lt;&lt; &quot;\n&quot;;" style="shape=parallelogram;perimeter=parallelogramPerimeter;whiteSpace=wrap;html=1;fixedSize=1;" vertex="1" parent="1">
          <mxGeometry x="665" y="2370" width="150" height="60" as="geometry" />
        </mxCell>
        <mxCell id="whBnh5u1kCoV2yIRg_Z0-203" value="" style="endArrow=classic;html=1;rounded=0;" edge="1" parent="1">
          <mxGeometry width="50" height="50" relative="1" as="geometry">
            <mxPoint x="739.5" y="2430" as="sourcePoint" />
            <mxPoint x="739.5" y="2450" as="targetPoint" />
          </mxGeometry>
        </mxCell>
        <mxCell id="whBnh5u1kCoV2yIRg_Z0-204" value="cout &lt;&lt; read_line &lt;&lt; &quot;\n&quot;;" style="shape=parallelogram;perimeter=parallelogramPerimeter;whiteSpace=wrap;html=1;fixedSize=1;" vertex="1" parent="1">
          <mxGeometry x="655" y="2450" width="160" height="60" as="geometry" />
        </mxCell>
        <mxCell id="whBnh5u1kCoV2yIRg_Z0-205" value="" style="endArrow=classic;html=1;rounded=0;" edge="1" parent="1">
          <mxGeometry width="50" height="50" relative="1" as="geometry">
            <mxPoint x="920" y="2340" as="sourcePoint" />
            <mxPoint x="870" y="2600" as="targetPoint" />
            <Array as="points">
              <mxPoint x="960" y="2340" />
              <mxPoint x="960" y="2600" />
            </Array>
          </mxGeometry>
        </mxCell>
        <mxCell id="whBnh5u1kCoV2yIRg_Z0-206" value="" style="endArrow=classic;html=1;rounded=0;" edge="1" parent="1">
          <mxGeometry width="50" height="50" relative="1" as="geometry">
            <mxPoint x="740" y="2570" as="sourcePoint" />
            <mxPoint x="870" y="2600" as="targetPoint" />
            <Array as="points">
              <mxPoint x="740" y="2600" />
            </Array>
          </mxGeometry>
        </mxCell>
        <mxCell id="whBnh5u1kCoV2yIRg_Z0-207" value="" style="endArrow=classic;html=1;rounded=0;" edge="1" parent="1">
          <mxGeometry width="50" height="50" relative="1" as="geometry">
            <mxPoint x="870" y="2600" as="sourcePoint" />
            <mxPoint x="850" y="2190" as="targetPoint" />
            <Array as="points">
              <mxPoint x="870" y="2640" />
              <mxPoint x="620" y="2640" />
              <mxPoint x="620" y="2190" />
            </Array>
          </mxGeometry>
        </mxCell>
        <mxCell id="whBnh5u1kCoV2yIRg_Z0-208" value="" style="endArrow=classic;html=1;rounded=0;" edge="1" parent="1">
          <mxGeometry width="50" height="50" relative="1" as="geometry">
            <mxPoint x="930" y="2240" as="sourcePoint" />
            <mxPoint x="860" y="2810" as="targetPoint" />
            <Array as="points">
              <mxPoint x="1030" y="2240" />
              <mxPoint x="1030" y="2760" />
              <mxPoint x="860" y="2760" />
            </Array>
          </mxGeometry>
        </mxCell>
        <mxCell id="whBnh5u1kCoV2yIRg_Z0-210" value="line_number++;" style="rounded=0;whiteSpace=wrap;html=1;" vertex="1" parent="1">
          <mxGeometry x="692.5" y="2530" width="95" height="30" as="geometry" />
        </mxCell>
        <mxCell id="whBnh5u1kCoV2yIRg_Z0-212" value="" style="endArrow=classic;html=1;rounded=0;entryX=0.5;entryY=0;entryDx=0;entryDy=0;" edge="1" parent="1" target="whBnh5u1kCoV2yIRg_Z0-210">
          <mxGeometry width="50" height="50" relative="1" as="geometry">
            <mxPoint x="740" y="2510" as="sourcePoint" />
            <mxPoint x="790" y="2460" as="targetPoint" />
          </mxGeometry>
        </mxCell>
        <mxCell id="whBnh5u1kCoV2yIRg_Z0-213" value="" style="endArrow=classic;html=1;rounded=0;" edge="1" parent="1">
          <mxGeometry width="50" height="50" relative="1" as="geometry">
            <mxPoint x="740" y="2560" as="sourcePoint" />
            <mxPoint x="870" y="2600" as="targetPoint" />
            <Array as="points">
              <mxPoint x="740" y="2600" />
            </Array>
          </mxGeometry>
        </mxCell>
        <UserObject label="f1_read.close();" link="f1_read.close();" id="whBnh5u1kCoV2yIRg_Z0-214">
          <mxCell style="rounded=0;whiteSpace=wrap;html=1;" vertex="1" parent="1">
            <mxGeometry x="800" y="2810" width="120" height="60" as="geometry" />
          </mxCell>
        </UserObject>
        <mxCell id="whBnh5u1kCoV2yIRg_Z0-215" value="" style="endArrow=classic;html=1;rounded=0;" edge="1" parent="1">
          <mxGeometry width="50" height="50" relative="1" as="geometry">
            <mxPoint x="860" y="2870" as="sourcePoint" />
            <mxPoint x="860" y="2900" as="targetPoint" />
          </mxGeometry>
        </mxCell>
        <UserObject label="f2.close();" link="f2.close();" id="whBnh5u1kCoV2yIRg_Z0-216">
          <mxCell style="rounded=0;whiteSpace=wrap;html=1;" vertex="1" parent="1">
            <mxGeometry x="800" y="2900" width="120" height="60" as="geometry" />
          </mxCell>
        </UserObject>
        <mxCell id="whBnh5u1kCoV2yIRg_Z0-217" value="" style="endArrow=classic;html=1;rounded=0;" edge="1" parent="1">
          <mxGeometry width="50" height="50" relative="1" as="geometry">
            <mxPoint x="860" y="2960" as="sourcePoint" />
            <mxPoint x="860" y="2980" as="targetPoint" />
          </mxGeometry>
        </mxCell>
        <mxCell id="whBnh5u1kCoV2yIRg_Z0-219" value="ifstream f2_read(file_f2);" style="rounded=0;whiteSpace=wrap;html=1;" vertex="1" parent="1">
          <mxGeometry x="800" y="2980" width="120" height="60" as="geometry" />
        </mxCell>
        <mxCell id="whBnh5u1kCoV2yIRg_Z0-220" value="" style="endArrow=classic;html=1;rounded=0;" edge="1" parent="1">
          <mxGeometry width="50" height="50" relative="1" as="geometry">
            <mxPoint x="860" y="3040" as="sourcePoint" />
            <mxPoint x="860" y="3060" as="targetPoint" />
          </mxGeometry>
        </mxCell>
        <mxCell id="whBnh5u1kCoV2yIRg_Z0-222" value="if (!f2_read.is_open())" style="rhombus;whiteSpace=wrap;html=1;" vertex="1" parent="1">
          <mxGeometry x="795" y="3060" width="130" height="80" as="geometry" />
        </mxCell>
        <mxCell id="whBnh5u1kCoV2yIRg_Z0-223" value="" style="endArrow=classic;html=1;rounded=0;" edge="1" parent="1">
          <mxGeometry width="50" height="50" relative="1" as="geometry">
            <mxPoint x="795" y="3100" as="sourcePoint" />
            <mxPoint x="740" y="3140" as="targetPoint" />
            <Array as="points">
              <mxPoint x="740" y="3100" />
            </Array>
          </mxGeometry>
        </mxCell>
        <mxCell id="whBnh5u1kCoV2yIRg_Z0-226" value="cerr &lt;&lt; &quot;Ошибка: не удалось открыть файл &quot; &lt;&lt; file_f2 &lt;&lt; &quot; для чтения.&quot; &lt;&lt; endl;" style="shape=parallelogram;perimeter=parallelogramPerimeter;whiteSpace=wrap;html=1;fixedSize=1;" vertex="1" parent="1">
          <mxGeometry x="665" y="3140" width="160" height="60" as="geometry" />
        </mxCell>
        <mxCell id="whBnh5u1kCoV2yIRg_Z0-227" value="1" style="text;html=1;align=center;verticalAlign=middle;whiteSpace=wrap;rounded=0;" vertex="1" parent="1">
          <mxGeometry x="740" y="3070" width="60" height="30" as="geometry" />
        </mxCell>
        <mxCell id="whBnh5u1kCoV2yIRg_Z0-228" value="" style="endArrow=classic;html=1;rounded=0;entryX=0.5;entryY=0;entryDx=0;entryDy=0;exitX=0.468;exitY=1.003;exitDx=0;exitDy=0;exitPerimeter=0;" edge="1" parent="1" source="whBnh5u1kCoV2yIRg_Z0-226" target="whBnh5u1kCoV2yIRg_Z0-229">
          <mxGeometry width="50" height="50" relative="1" as="geometry">
            <mxPoint x="737.5" y="3200" as="sourcePoint" />
            <mxPoint x="740" y="3220" as="targetPoint" />
          </mxGeometry>
        </mxCell>
        <mxCell id="whBnh5u1kCoV2yIRg_Z0-229" value="return 1;" style="ellipse;whiteSpace=wrap;html=1;" vertex="1" parent="1">
          <mxGeometry x="680" y="3230" width="120" height="80" as="geometry" />
        </mxCell>
        <mxCell id="whBnh5u1kCoV2yIRg_Z0-230" value="" style="endArrow=classic;html=1;rounded=0;" edge="1" parent="1">
          <mxGeometry width="50" height="50" relative="1" as="geometry">
            <mxPoint x="925" y="3100" as="sourcePoint" />
            <mxPoint x="990" y="3160" as="targetPoint" />
            <Array as="points">
              <mxPoint x="990" y="3100" />
            </Array>
          </mxGeometry>
        </mxCell>
        <mxCell id="whBnh5u1kCoV2yIRg_Z0-231" value="0" style="text;html=1;align=center;verticalAlign=middle;whiteSpace=wrap;rounded=0;" vertex="1" parent="1">
          <mxGeometry x="920" y="3070" width="60" height="30" as="geometry" />
        </mxCell>
        <mxCell id="whBnh5u1kCoV2yIRg_Z0-232" value="while (getline(f2_read, current_line))" style="rhombus;whiteSpace=wrap;html=1;" vertex="1" parent="1">
          <mxGeometry x="910" y="3160" width="160" height="80" as="geometry" />
        </mxCell>
        <mxCell id="whBnh5u1kCoV2yIRg_Z0-233" value="" style="endArrow=classic;html=1;rounded=0;" edge="1" parent="1">
          <mxGeometry width="50" height="50" relative="1" as="geometry">
            <mxPoint x="990" y="3240" as="sourcePoint" />
            <mxPoint x="990" y="3260" as="targetPoint" />
          </mxGeometry>
        </mxCell>
        <mxCell id="whBnh5u1kCoV2yIRg_Z0-234" value="stringstream ss(current_line);" style="rounded=0;whiteSpace=wrap;html=1;" vertex="1" parent="1">
          <mxGeometry x="930" y="3260" width="120" height="60" as="geometry" />
        </mxCell>
        <mxCell id="whBnh5u1kCoV2yIRg_Z0-235" value="" style="endArrow=classic;html=1;rounded=0;" edge="1" parent="1">
          <mxGeometry width="50" height="50" relative="1" as="geometry">
            <mxPoint x="990" y="3320" as="sourcePoint" />
            <mxPoint x="990" y="3340" as="targetPoint" />
          </mxGeometry>
        </mxCell>
        <mxCell id="whBnh5u1kCoV2yIRg_Z0-236" value="1" style="text;html=1;align=center;verticalAlign=middle;whiteSpace=wrap;rounded=0;" vertex="1" parent="1">
          <mxGeometry x="950" y="3240" width="40" height="20" as="geometry" />
        </mxCell>
        <mxCell id="whBnh5u1kCoV2yIRg_Z0-238" value="while (ss &gt;&gt; word)" style="rhombus;whiteSpace=wrap;html=1;" vertex="1" parent="1">
          <mxGeometry x="940" y="3340" width="100" height="80" as="geometry" />
        </mxCell>
        <mxCell id="whBnh5u1kCoV2yIRg_Z0-239" value="" style="endArrow=classic;html=1;rounded=0;" edge="1" parent="1">
          <mxGeometry width="50" height="50" relative="1" as="geometry">
            <mxPoint x="990" y="3420" as="sourcePoint" />
            <mxPoint x="990" y="3440" as="targetPoint" />
          </mxGeometry>
        </mxCell>
        <mxCell id="whBnh5u1kCoV2yIRg_Z0-240" value="last_word = word;" style="rounded=0;whiteSpace=wrap;html=1;" vertex="1" parent="1">
          <mxGeometry x="930" y="3440" width="120" height="60" as="geometry" />
        </mxCell>
        <mxCell id="whBnh5u1kCoV2yIRg_Z0-241" value="" style="endArrow=classic;html=1;rounded=0;" edge="1" parent="1">
          <mxGeometry width="50" height="50" relative="1" as="geometry">
            <mxPoint x="990" y="3500" as="sourcePoint" />
            <mxPoint x="990" y="3330" as="targetPoint" />
            <Array as="points">
              <mxPoint x="990" y="3540" />
              <mxPoint x="890" y="3540" />
              <mxPoint x="890" y="3330" />
            </Array>
          </mxGeometry>
        </mxCell>
        <mxCell id="whBnh5u1kCoV2yIRg_Z0-242" value="" style="endArrow=classic;html=1;rounded=0;" edge="1" parent="1">
          <mxGeometry width="50" height="50" relative="1" as="geometry">
            <mxPoint x="1040" y="3380" as="sourcePoint" />
            <mxPoint x="990" y="3120" as="targetPoint" />
            <Array as="points">
              <mxPoint x="1080" y="3380" />
              <mxPoint x="1080" y="3580" />
              <mxPoint x="870" y="3580" />
              <mxPoint x="870" y="3160" />
              <mxPoint x="950" y="3160" />
              <mxPoint x="950" y="3120" />
            </Array>
          </mxGeometry>
        </mxCell>
        <mxCell id="whBnh5u1kCoV2yIRg_Z0-243" value="" style="endArrow=classic;html=1;rounded=0;" edge="1" parent="1">
          <mxGeometry width="50" height="50" relative="1" as="geometry">
            <mxPoint x="1070" y="3200" as="sourcePoint" />
            <mxPoint x="1150" y="3630" as="targetPoint" />
            <Array as="points">
              <mxPoint x="1150" y="3200" />
            </Array>
          </mxGeometry>
        </mxCell>
        <UserObject label="f2_read.close();" link="f2_read.close();" id="whBnh5u1kCoV2yIRg_Z0-245">
          <mxCell style="rounded=0;whiteSpace=wrap;html=1;" vertex="1" parent="1">
            <mxGeometry x="1090" y="3630" width="120" height="60" as="geometry" />
          </mxCell>
        </UserObject>
        <mxCell id="whBnh5u1kCoV2yIRg_Z0-246" value="" style="endArrow=classic;html=1;rounded=0;" edge="1" parent="1">
          <mxGeometry width="50" height="50" relative="1" as="geometry">
            <mxPoint x="1150" y="3690" as="sourcePoint" />
            <mxPoint x="1150" y="3720" as="targetPoint" />
          </mxGeometry>
        </mxCell>
        <UserObject label="cout &lt;&lt; &quot;Длина последнего слова в файле &quot; &lt;&lt; file_f2 &lt;&lt; &quot;: &quot; &lt;&lt; last_word.length() &lt;&lt; endl;" link="cout &lt;&lt; &quot;Длина последнего слова в файле &quot; &lt;&lt; file_f2 &lt;&lt; &quot;: &quot; &lt;&lt; last_word.length() &lt;&lt; endl;" id="whBnh5u1kCoV2yIRg_Z0-247">
          <mxCell style="shape=parallelogram;perimeter=parallelogramPerimeter;whiteSpace=wrap;html=1;fixedSize=1;" vertex="1" parent="1">
            <mxGeometry x="1040" y="3720" width="230" height="60" as="geometry" />
          </mxCell>
        </UserObject>
        <mxCell id="whBnh5u1kCoV2yIRg_Z0-248" value="" style="endArrow=classic;html=1;rounded=0;" edge="1" parent="1">
          <mxGeometry width="50" height="50" relative="1" as="geometry">
            <mxPoint x="1150" y="3780" as="sourcePoint" />
            <mxPoint x="1150" y="3800" as="targetPoint" />
          </mxGeometry>
        </mxCell>
        <mxCell id="whBnh5u1kCoV2yIRg_Z0-249" value="return 0;" style="ellipse;whiteSpace=wrap;html=1;" vertex="1" parent="1">
          <mxGeometry x="1090" y="3800" width="120" height="80" as="geometry" />
        </mxCell>
        <mxCell id="whBnh5u1kCoV2yIRg_Z0-250" value="}" style="text;html=1;align=center;verticalAlign=middle;whiteSpace=wrap;rounded=0;" vertex="1" parent="1">
          <mxGeometry x="1140" y="3880" width="60" height="30" as="geometry" />
        </mxCell>
        <mxCell id="whBnh5u1kCoV2yIRg_Z0-251" value="{" style="text;html=1;align=center;verticalAlign=middle;whiteSpace=wrap;rounded=0;" vertex="1" parent="1">
          <mxGeometry x="270" y="80" width="60" height="30" as="geometry" />
        </mxCell>
      </root>
    </mxGraphModel>
  </diagram>
</mxfile>
